<svg xmlns="http://www.w3.org/2000/svg" version="1.1" xmlns:xlink="http://www.w3.org/1999/xlink" width="54" height="40"><svg xmlns="http://www.w3.org/2000/svg" version="1.1" xmlns:xlink="http://www.w3.org/1999/xlink" width="54" height="40"><svg width="54" height="40" xmlns="http://www.w3.org/2000/svg">
 <g>
  <title>Layer 1</title>
  <g id="svg_3">
   <g id="svg_9">
    <path id="svg_7" fill="#FF500B" d="m35.00001,0.00001c10.4934,0 19,8.50659 19,19l0,21c-4.4183,0 -8,-3.5817 -8,-8l0,-13c0,-6.0751 -4.9249,-11 -11,-11l-5.2012,0c-2.6521,0.00004 -5.1959,1.05339 -7.0713,2.9287l-13.55562,13.5567c-0.75009,0.75 -1.17182,1.7673 -1.17188,2.8281l0,0.6865c0,2.2091 1.7909,4 4,4l18,0c0,4.2801 -3.3611,7.7748 -7.5879,7.9893l-0.4121,0.0107l-10,0c-6.62741,0 -12,-5.3726 -12,-12l0,-0.6865c0.00006,-3.1825 1.26427,-6.235 3.51465,-8.4854l13.55665,-13.55564c3.3756,-3.37561 7.9537,-5.27242 12.7275,-5.27246l5.2012,0z"></path>
    <path id="svg_8" fill="#FF500B" d="m37.00001,12.00001c2.7614,0 5,2.2386 5,5l0,23c-4.4183,0 -8,-3.5817 -8,-8l0,-12l-3.3438,0l-6.5355,6.5355c-0.9377,0.9377 -2.2094,1.4645 -3.5355,1.4645l-8.1077,0c-0.4187,0 -0.6284,-0.5063 -0.3323,-0.8024l13.7337,-13.7328c0.9376,-0.9376 2.2091,-1.4648 3.5352,-1.4648l7.5859,0z"></path>
   </g>
  </g>
 </g>

</svg></svg><style>@media (prefers-color-scheme: light) { :root { filter: none; } }
@media (prefers-color-scheme: dark) { :root { filter: none; } }
</style></svg>