<svg viewBox="0 0 298 43" xmlns="http://www.w3.org/2000/svg" data-logo="logo">
        <g transform="translate(0, 1) rotate(0)" id="logogram" style="opacity: 1;"><path fill="#FF500B" d="M35.5 0.5C45.9934 0.5 54.5 9.00659 54.5 19.5V40.5C50.0817 40.5 46.5 36.9183 46.5 32.5V19.5C46.5 13.4249 41.5751 8.5 35.5 8.5H30.2988C27.6467 8.50004 25.1029 9.55339 23.2275 11.4287L9.67188 24.9854C8.92179 25.7354 8.50006 26.7527 8.5 27.8135V28.5C8.5 30.7091 10.2909 32.5 12.5 32.5H30.5C30.5 36.7801 27.1389 40.2748 22.9121 40.4893L22.5 40.5H12.5C5.87259 40.5 0.5 35.1274 0.5 28.5V27.8135C0.500062 24.631 1.76427 21.5785 4.01465 19.3281L17.5713 5.77246C20.9469 2.39685 25.525 0.500044 30.2988 0.5H35.5Z"></path><path fill="#FF500B" d="M37.5 12.5C40.2614 12.5 42.5 14.7386 42.5 17.5V40.5C38.0817 40.5 34.5 36.9183 34.5 32.5V20.5H31.1562L24.6207 27.0355C23.683 27.9732 22.4113 28.5 21.0852 28.5H12.9775C12.5588 28.5 12.3491 27.9937 12.6452 27.6976L26.3789 13.9648C27.3165 13.0272 28.588 12.5 29.9141 12.5H37.5Z"></path></g>
        <g transform="translate(61, 1)" id="logotype" style="opacity: 1;"><path d="M25.38 33L8.31 33L8.31 7.54L25.35 7.54L25.35 11.86L13.52 11.86L13.52 18.01L24.44 18.01L24.44 22.27L13.52 22.27L13.52 28.68L25.38 28.68L25.38 33ZM38.38 33L32.56 33L25.51 13.89L30.97 13.89L34.18 23.81Q34.76 25.67 35.20 27.57Q35.63 29.46 36.09 31.50L36.09 31.50L35.00 31.50Q35.44 29.46 35.87 27.57Q36.30 25.67 36.88 23.81L36.88 23.81L40.06 13.89L45.44 13.89L38.38 33ZM54.51 33.38L54.51 33.38Q51.59 33.38 49.47 32.18Q47.35 30.98 46.22 28.78Q45.08 26.57 45.08 23.55L45.08 23.55Q45.08 20.59 46.21 18.37Q47.34 16.15 49.40 14.90Q51.47 13.65 54.26 13.65L54.26 13.65Q56.14 13.65 57.76 14.25Q59.38 14.85 60.62 16.06Q61.85 17.26 62.54 19.07Q63.23 20.88 63.23 23.34L63.23 23.34L63.23 24.78L47.18 24.78L47.18 21.57L60.72 21.57L58.33 22.42Q58.33 20.93 57.87 19.83Q57.42 18.73 56.52 18.12Q55.62 17.52 54.29 17.52L54.29 17.52Q52.98 17.52 52.04 18.13Q51.11 18.75 50.63 19.80Q50.16 20.85 50.16 22.20L50.16 22.20L50.16 24.47Q50.16 26.13 50.71 27.26Q51.27 28.39 52.27 28.95Q53.27 29.51 54.60 29.51L54.60 29.51Q55.51 29.51 56.24 29.26Q56.97 29.00 57.50 28.50Q58.02 27.99 58.29 27.26L58.29 27.26L62.94 28.13Q62.48 29.70 61.33 30.89Q60.19 32.08 58.47 32.73Q56.75 33.38 54.51 33.38ZM69.59 21.94L69.59 21.94L69.59 33L64.46 33L64.46 13.89L69.29 13.89L69.38 18.66L69.07 18.66Q69.82 16.27 71.35 14.96Q72.88 13.65 75.31 13.65L75.31 13.65Q77.29 13.65 78.76 14.52Q80.23 15.38 81.05 17.00Q81.87 18.61 81.87 20.85L81.87 20.85L81.87 33L76.75 33L76.75 21.74Q76.75 19.96 75.83 18.95Q74.92 17.94 73.29 17.94L73.29 17.94Q72.22 17.94 71.37 18.41Q70.53 18.88 70.06 19.77Q69.59 20.66 69.59 21.94ZM82.13 13.89L93.46 13.89L93.46 17.81L82.13 17.81L82.13 13.89ZM84.76 27.86L84.76 9.35L89.89 9.35L89.89 27.41Q89.89 28.32 90.29 28.75Q90.69 29.19 91.63 29.19L91.63 29.19Q91.92 29.19 92.45 29.11Q92.98 29.04 93.25 28.97L93.25 28.97L93.99 32.81Q93.13 33.07 92.29 33.17Q91.44 33.27 90.67 33.27L90.67 33.27Q87.80 33.27 86.28 31.87Q84.76 30.47 84.76 27.86L84.76 27.86ZM105.83 33L100.65 33L100.65 7.54L108.65 7.54L112.78 19.23Q113.04 20.05 113.37 21.34Q113.70 22.64 114.05 24.15Q114.39 25.65 114.69 27.07Q114.99 28.49 115.17 29.53L115.17 29.53L114.17 29.53Q114.35 28.51 114.65 27.10Q114.95 25.69 115.29 24.18Q115.64 22.68 115.97 21.36Q116.30 20.05 116.56 19.23L116.56 19.23L120.63 7.54L128.66 7.54L128.66 33L123.41 33L123.41 20.99Q123.41 20.17 123.45 18.92Q123.48 17.67 123.51 16.23Q123.55 14.78 123.58 13.32Q123.62 11.86 123.63 10.56L123.63 10.56L123.96 10.56Q123.63 11.98 123.24 13.49Q122.85 15.00 122.45 16.42Q122.04 17.84 121.69 19.03Q121.33 20.22 121.07 20.99L121.07 20.99L116.85 33L112.46 33L108.17 20.99Q107.91 20.22 107.55 19.05Q107.19 17.88 106.79 16.46Q106.39 15.04 105.98 13.53Q105.57 12.01 105.19 10.56L105.19 10.56L105.60 10.56Q105.62 11.79 105.66 13.24Q105.69 14.70 105.73 16.16Q105.78 17.62 105.80 18.88Q105.83 20.13 105.83 20.99L105.83 20.99L105.83 33ZM136.19 33.38L136.19 33.38Q134.38 33.38 132.94 32.74Q131.49 32.09 130.66 30.82Q129.84 29.55 129.84 27.65L129.84 27.65Q129.84 26.06 130.43 24.98Q131.01 23.91 132.03 23.26Q133.05 22.61 134.34 22.27Q135.63 21.93 137.05 21.79L137.05 21.79Q138.71 21.62 139.72 21.47Q140.74 21.33 141.21 21.01Q141.68 20.70 141.68 20.08L141.68 20.08L141.68 19.99Q141.68 19.17 141.34 18.61Q141.00 18.05 140.33 17.75Q139.66 17.45 138.69 17.45L138.69 17.45Q137.70 17.45 136.96 17.75Q136.23 18.05 135.77 18.54Q135.30 19.04 135.08 19.65L135.08 19.65L130.38 18.87Q130.88 17.21 132.02 16.05Q133.17 14.88 134.87 14.27Q136.57 13.65 138.69 13.65L138.69 13.65Q140.24 13.65 141.70 14.02Q143.15 14.39 144.30 15.16Q145.46 15.93 146.13 17.16Q146.81 18.39 146.81 20.13L146.81 20.13L146.81 33L141.95 33L141.95 30.35L141.78 30.35Q141.32 31.24 140.55 31.91Q139.78 32.59 138.70 32.98Q137.61 33.38 136.19 33.38ZM137.65 29.77L137.65 29.77Q138.86 29.77 139.77 29.29Q140.69 28.81 141.20 27.99Q141.71 27.17 141.71 26.16L141.71 26.16L141.71 24.10Q141.49 24.27 141.03 24.40Q140.57 24.54 140.00 24.64Q139.44 24.75 138.89 24.83Q138.35 24.92 137.92 24.97L137.92 24.97Q136.98 25.10 136.26 25.41Q135.54 25.72 135.15 26.22Q134.76 26.73 134.76 27.51L134.76 27.51Q134.76 28.25 135.13 28.75Q135.51 29.26 136.15 29.51Q136.79 29.77 137.65 29.77ZM154.03 21.94L154.03 21.94L154.03 33L148.91 33L148.91 13.89L153.74 13.89L153.83 18.66L153.52 18.66Q154.27 16.27 155.80 14.96Q157.33 13.65 159.76 13.65L159.76 13.65Q161.74 13.65 163.21 14.52Q164.68 15.38 165.50 17.00Q166.32 18.61 166.32 20.85L166.32 20.85L166.32 33L161.19 33L161.19 21.74Q161.19 19.96 160.28 18.95Q159.36 17.94 157.74 17.94L157.74 17.94Q156.66 17.94 155.82 18.41Q154.97 18.88 154.50 19.77Q154.03 20.66 154.03 21.94ZM173.75 33.38L173.75 33.38Q171.94 33.38 170.50 32.74Q169.05 32.09 168.22 30.82Q167.40 29.55 167.40 27.65L167.40 27.65Q167.40 26.06 167.98 24.98Q168.57 23.91 169.59 23.26Q170.61 22.61 171.90 22.27Q173.19 21.93 174.61 21.79L174.61 21.79Q176.26 21.62 177.28 21.47Q178.30 21.33 178.77 21.01Q179.24 20.70 179.24 20.08L179.24 20.08L179.24 19.99Q179.24 19.17 178.90 18.61Q178.55 18.05 177.89 17.75Q177.22 17.45 176.25 17.45L176.25 17.45Q175.26 17.45 174.52 17.75Q173.79 18.05 173.33 18.54Q172.86 19.04 172.64 19.65L172.64 19.65L167.94 18.87Q168.44 17.21 169.58 16.05Q170.73 14.88 172.43 14.27Q174.13 13.65 176.25 13.65L176.25 13.65Q177.80 13.65 179.26 14.02Q180.71 14.39 181.86 15.16Q183.02 15.93 183.69 17.16Q184.37 18.39 184.37 20.13L184.37 20.13L184.37 33L179.51 33L179.51 30.35L179.34 30.35Q178.88 31.24 178.11 31.91Q177.34 32.59 176.26 32.98Q175.17 33.38 173.75 33.38ZM175.21 29.77L175.21 29.77Q176.42 29.77 177.33 29.29Q178.25 28.81 178.76 27.99Q179.27 27.17 179.27 26.16L179.27 26.16L179.27 24.10Q179.05 24.27 178.59 24.40Q178.13 24.54 177.56 24.64Q177.00 24.75 176.45 24.83Q175.91 24.92 175.48 24.97L175.48 24.97Q174.54 25.10 173.82 25.41Q173.10 25.72 172.71 26.22Q172.32 26.73 172.32 27.51L172.32 27.51Q172.32 28.25 172.69 28.75Q173.07 29.26 173.71 29.51Q174.35 29.77 175.21 29.77ZM194.94 40.55L194.94 40.55Q192.57 40.55 190.79 39.95Q189.01 39.34 187.90 38.28Q186.79 37.22 186.36 35.87L186.36 35.87L190.77 34.64Q191.01 35.17 191.52 35.67Q192.02 36.18 192.86 36.50Q193.69 36.83 194.92 36.83L194.92 36.83Q196.89 36.83 198.01 35.93Q199.13 35.03 199.13 33.14L199.13 33.14L199.13 29.62L198.74 29.62Q198.39 30.39 197.74 31.10Q197.10 31.82 196.04 32.27Q194.99 32.73 193.44 32.73L193.44 32.73Q191.28 32.73 189.52 31.72Q187.76 30.71 186.71 28.64Q185.66 26.57 185.66 23.41L185.66 23.41Q185.66 20.18 186.73 18.01Q187.80 15.84 189.57 14.75Q191.34 13.65 193.46 13.65L193.46 13.65Q195.06 13.65 196.16 14.19Q197.25 14.73 197.92 15.54Q198.60 16.35 198.94 17.11L198.94 17.11L199.16 17.11L199.16 13.89L204.20 13.89L204.20 32.85Q204.20 35.43 203.02 37.14Q201.83 38.86 199.74 39.71Q197.66 40.55 194.94 40.55ZM195.04 28.83L195.04 28.83Q196.36 28.83 197.27 28.18Q198.19 27.53 198.67 26.31Q199.15 25.09 199.15 23.38L199.15 23.38Q199.15 21.69 198.67 20.42Q198.19 19.16 197.27 18.46Q196.36 17.76 195.04 17.76L195.04 17.76Q193.69 17.76 192.78 18.48Q191.87 19.21 191.40 20.47Q190.93 21.74 190.93 23.38L190.93 23.38Q190.93 25.05 191.40 26.28Q191.87 27.50 192.79 28.16Q193.71 28.83 195.04 28.83ZM214.93 33.38L214.93 33.38Q212.01 33.38 209.89 32.18Q207.77 30.98 206.64 28.78Q205.50 26.57 205.50 23.55L205.50 23.55Q205.50 20.59 206.63 18.37Q207.76 16.15 209.83 14.90Q211.89 13.65 214.68 13.65L214.68 13.65Q216.56 13.65 218.18 14.25Q219.81 14.85 221.04 16.06Q222.27 17.26 222.96 19.07Q223.65 20.88 223.65 23.34L223.65 23.34L223.65 24.78L207.60 24.78L207.60 21.57L221.14 21.57L218.75 22.42Q218.75 20.93 218.29 19.83Q217.84 18.73 216.94 18.12Q216.05 17.52 214.71 17.52L214.71 17.52Q213.40 17.52 212.47 18.13Q211.53 18.75 211.06 19.80Q210.58 20.85 210.58 22.20L210.58 22.20L210.58 24.47Q210.58 26.13 211.13 27.26Q211.69 28.39 212.69 28.95Q213.69 29.51 215.02 29.51L215.02 29.51Q215.93 29.51 216.66 29.26Q217.40 29.00 217.92 28.50Q218.44 27.99 218.71 27.26L218.71 27.26L223.36 28.13Q222.90 29.70 221.75 30.89Q220.61 32.08 218.89 32.73Q217.17 33.38 214.93 33.38ZM230.01 33L224.88 33L224.88 13.89L229.84 13.89L229.84 17.23L230.04 17.23Q230.57 15.45 231.81 14.54Q233.05 13.64 234.65 13.64L234.65 13.64Q235.05 13.64 235.50 13.68Q235.95 13.72 236.31 13.81L236.31 13.81L236.31 18.39Q235.97 18.27 235.32 18.20Q234.67 18.13 234.09 18.13L234.09 18.13Q232.93 18.13 231.99 18.64Q231.05 19.14 230.53 20.04Q230.01 20.93 230.01 22.13L230.01 22.13L230.01 33Z" fill="#ffffff"></path></g>
        
      </svg>